<svg version="1.2" xmlns="http://www.w3.org/2000/svg" viewBox="0 0 1024 1024" width="1024" height="1024">
  <defs>
    <radialGradient id="a" cx="35%" cy="28%" r="85%">
      <stop offset="0%" stop-color="#e3b7ff"/>
      <stop offset="22%" stop-color="#c88cff"/>
      <stop offset="52%" stop-color="#9d63ff"/>
      <stop offset="82%" stop-color="#6e4fd7"/>
      <stop offset="100%" stop-color="#4b38a8"/>
    </radialGradient>
  </defs>

  <!-- scaled 1.25x around exact center (512,512) -->
  <path d="M592 254c-8 .5-21.7 1.6-30.5 2.5s-21.6 2.5-28.5 3.6-15.9 2.6-20 3.5c-4.1.8-12.9 2.9-19.5 4.5-6.6 1.7-18.8 5.3-27 8.1-8.3 2.8-21.1 7.7-28.5 10.9-7.4 3.3-18.7 8.8-25 12.2s-17.5 10.2-25 15.2c-7.4 4.9-18.9 13.2-25.5 18.5s-17.6 15.3-24.5 22.1c-6.9 6.9-16.1 16.9-20.5 22.3-4.4 5.3-10.8 13.6-14.2 18.4s-9 13.2-12.4 18.7-9.3 16.1-13 23.5-9.2 19.8-12.2 27.5-7.1 19.9-9.1 27-4.7 18-6 24c-1.4 6-3.4 17.1-4.5 24.5s-2.5 21.6-3.2 31.5c-.7 10.7-.9 25.3-.5 36 .3 9.9 1.1 23 1.7 29 .5 6 2.1 18 3.5 26.5s4.1 21.4 5.9 28.5c1.9 7.1 5.2 18.2 7.3 24.5 2.2 6.3 5.6 15.4 7.6 20.3 2 4.8 5.9 13.3 8.7 18.9 2.8 5.7 7.4 14.1 10.2 18.8s7.3 11.6 10.1 15.5c2.7 3.9 8.3 11 12.4 16 4.2 5 10.1 12.8 13.2 17.5 3.2 4.7 7.4 11.8 9.4 15.8 2 3.9 4.9 11.1 6.6 16 1.6 4.8 3.6 13.2 4.6 18.7 1.2 7.4 1.5 13.9 1.1 25-.3 9.9-1.2 18.6-2.7 25.5-1.2 5.8-4.8 18.5-8.1 28.3-4.7 14.1-5.9 19-5.9 23.9 0 5.1.6 7.3 2.9 11.3 1.5 2.8 4.6 6.2 6.7 7.7 2.2 1.4 5.9 3.2 8.4 3.8 2.8.8 7.4 1 12 .6 4.1-.3 12.7-1.9 19-3.5s17.4-5 24.5-7.6 18.4-7.3 25-10.5 18.3-9.5 26-14.1c7.7-4.5 18.9-10.6 25-13.5 6.1-2.8 15.3-6.5 20.5-8.2 5.2-1.6 13.1-3.7 17.5-4.6 4.4-.8 10.7-1.8 14-2.2s28-.1 55 .6c38.6 1 56.4 1.1 83.5.1 19-.6 41-1.8 49-2.6 8-.9 19.9-2.5 26.5-3.6s17.9-3.4 25-5c7.1-1.7 19.6-5.3 27.8-8 8.1-2.7 20.9-7.6 28.4-11 7.6-3.3 18.3-8.6 23.8-11.6 5.5-3.1 14.7-8.7 20.5-12.6 5.8-3.8 14.7-10.4 19.9-14.6s13.8-11.5 19-16.2c5.3-4.8 13.7-13.3 18.8-19 5-5.7 12-14 15.5-18.4s8.6-11.1 11.3-15c2.6-3.9 7.7-11.7 11.3-17.5 3.5-5.8 9.2-16.4 12.7-23.5s7.9-16.8 9.8-21.5 4.9-12.5 6.6-17.5c1.8-5 5-15.8 7.1-24 2.2-8.3 5.1-22 6.4-30.5s3-22.9 3.7-32c.7-10.7 1-26.6.6-45.5-.3-16-1.1-32.8-1.7-37.5s-1.7-12.8-2.6-18-.2.9-4.5-22-4.5-17.5-6.5-23.5c-1.9-6-4.6-14.1-6.1-18-1.4-3.9-5.1-12.4-8.1-19s-8-16.5-11-22-8.9-15.2-13-21.5-10.2-15.1-13.6-19.5c-3.3-4.4-10.8-13.4-16.6-19.9-5.8-6.6-15.7-16.6-22-22.2-6.3-5.7-15.1-13.1-19.5-16.5s-13.6-9.9-20.5-14.4-17.9-11.2-24.5-14.8-18.3-9.2-26-12.5-18.7-7.6-24.5-9.7c-5.8-2-16.4-5.2-23.5-7-7.1-1.9-19.8-4.8-28-6.4s-22.4-3.9-31.5-5-22.6-2.5-30-3.1-26.5-1.2-42.5-1.4c-16-.3-35.5-.1-43.5.4"
        fill="url(#a)"
        transform="translate(512 512) scale(1.25) translate(-512 -512) translate(-115 -115)"/>
</svg>